<svg viewBox="0 0 24 24" xmlns="http://www.w3.org/2000/svg" role="presentation" aria-hidden="true" focusable="false" style="height: 24px; width: 24px; display: block; fill: rgb(96, 182, 181);"><path d="m23 14.76668c0 1.70448-1.25563 2.98282-3.67853 2.98282h-11.38885a2.27272 2.27272 0 0 1 -2.15239-1.98817c-.01439-1.05894.92464-2.22212 2.98947-2.273 2.75409-.06778 3.11258 1.70448 5.02244 1.70448 1.2715 0 2.00443-3.40889 5.441-3.40889 2.51123.00001 3.76686 1.27835 3.76686 2.98276zm-18.79359-7.75006a.41669.41669 0 0 0 -.59357.021.43052.43052 0 0 0 .02067.60222l.97206.92031a.41607.41607 0 0 0 .59358-.021.43053.43053 0 0 0 -.02067-.60222zm3.16032-.97723a.422.422 0 0 0 .40507.31309.41274.41274 0 0 0 .11173-.01548.42771.42771 0 0 0 .29334-.52432l-.61179-2.25058a.42084.42084 0 0 0 -.51679-.29761.4277.4277 0 0 0 -.29334.52432z" stroke="none" fill="#60b6b5" stroke-width="1px"></path><path d="m23 10.81527a.42473.42473 0 0 1 -.42049.429h-17.73111v4.0341a2.30013 2.30013 0 0 0 2.26889 2.31756h11.76444a2.30013 2.30013 0 0 0 2.26889-2.31756v-2.14554a.42058.42058 0 1 1 .841 0v2.14555a3.1531 3.1531 0 0 1 -3.02518 3.16747v1.12464a.42059.42059 0 1 1 -.841 0v-1.11549h-10.25186v1.11553a.42011.42011 0 1 1 -.84 0v-1.12453a3.15224 3.15224 0 0 1 -3.02518-3.16762v-4.0341h-.5884a.42911.42911 0 0 1 0-.858h19.15951a.42473.42473 0 0 1 .42049.42899zm-12.07711-3.74692a.43581.43581 0 0 1 -.10586-.33194c.29949-2.91248 1.93149-3.69229 3.38407-3.79652a3.67489 3.67489 0 0 1 3.67224-2.93989 4.12267 4.12267 0 0 1 4.202 4.29161v4.54961a.42058.42058 0 1 1 -.841 0v-4.54961a3.27007 3.27007 0 0 0 -3.361-3.43361 2.89952 2.89952 0 0 0 -2.81162 2.0874c1.41646.14472 2.94764.97281 3.19666 3.797a.434.434 0 0 1 -.10833.32842.41574.41574 0 0 1 -.3102.13932h-6.60479a.41551.41551 0 0 1 -.31217-.14179zm.79421-.71619h5.6481c-.27475-1.75426-1.17384-2.57557-2.80263-2.57557-1.63076 0-2.54364.82131-2.84547 2.57557z" fill="#484848" stroke="none" stroke-width="1px"></path></svg>