<svg viewBox="0 0 24 24" xmlns="http://www.w3.org/2000/svg" role="presentation" aria-hidden="true" focusable="false" style="height:24px;width:24px;display:block;fill:#60B6B5"><path d="m15.28772 11.94726h-.65872a.41469.41469 0 0 0 0 .82938h.65876a.45106.45106 0 0 1 .27609.15265.36175.36175 0 0 1 .08913.29947c-.04747.37725-.22572 2.16824-.559 5.62769h-1.28653v-2.74578a.41366.41366 0 1 0 -.82731 0v.8177h-6.0838v-2.1167h5.1843a.41518.41518 0 0 0 0-.83035h-5.1843v-3.91547a1.24758 1.24758 0 0 1 1.25648-1.25816h3.505a1.24131 1.24131 0 0 1 1.24243 1.25816c0 3.931 0 3.931.42 3.931a.41454.41454 0 0 0 .29256-.12251.41894.41894 0 0 0 .1211-.29461c0-.034-.00678-2.42882-.00678-3.51391a2.05784 2.05784 0 0 0 -2.06927-2.08753h-3.505a2.0512 2.0512 0 0 0 -2.08286 2.08756v1.89405h-1.45169a1.213 1.213 0 0 0 -.82151.45309 1.10258 1.10258 0 0 0 -.28578.88383c.04456.28683.28384 2.31311.71107 6.02245a.41472.41472 0 0 0 .41075.36753h1.85032a.4141.4141 0 0 0 .41318-.41517v-1.51291h6.0838v1.51291a.4142.4142 0 0 0 .41365.41517h2.07508a.414.414 0 0 0 .41172-.37531c.35166-3.64614.54542-5.60241.59192-5.9787a1.19715 1.19715 0 0 0 -.28869-.95237 1.263 1.263 0 0 0 -.8961-.43316zm-9.21772 6.90919h-1.069c-.40737-3.53432-.62776-5.39628-.67329-5.687-.02083-.13613.21216-.35635.29063-.38017h1.45166zm13.94623.47838a.4142.4142 0 0 1 -.41366.41517h-2.48a.41518.41518 0 0 1 0-.83035h.82635v-10.52665a.41366.41366 0 1 1 .82732 0v10.52665h.82635a.4142.4142 0 0 1 .41363.41518zm1.89585-11.69244a.41307.41307 0 0 1 -.3255.15945h-6.44805a.41469.41469 0 0 1 0-.82937h5.9191l-.78563-3.15318h-3.82856l-.57644 2.06031a.4137.4137 0 1 1 -.79632-.2246l.66167-2.3627a.41408.41408 0 0 1 .39815-.30239h1.81836v-.58091a.41366.41366 0 1 1 .82732 0v.581h1.81836a.41373.41373 0 0 1 .40106.314l.992 3.98256a.41515.41515 0 0 1 -.07552.35583z" fill="#484848" stroke="none" stroke-width="1px"></path><path d="m7.5 12.64966v-.64966a1.47246 1.47246 0 0 1 1.44327-1.5h1.61346a1.47246 1.47246 0 0 1 1.44327 1.5v.64966a.83472.83472 0 0 1 -.81818.85034h-2.86364a.83472.83472 0 0 1 -.81818-.85034z" stroke="none" fill="#60b6b5" stroke-width="1px"></path><path d="m19.01193 6.5h-1.85456c-.5337 0-.79726-.3311-.6744-.7708s.19172-.77341.27947-1.077.07115-.5959.39493-.5959.51028.65775.71642 1.0449 1.22017.19685 1.50393.56974a.50644.50644 0 0 1 -.36579.82906zm-3.38093-5.77477a.4335.4335 0 0 0 -.56876-.18277.39529.39529 0 0 0 -.19091.54169l.59362 1.14019a.42528.42528 0 0 0 .37983.22491.44532.44532 0 0 0 .18892-.04214.39529.39529 0 0 0 .19092-.54169zm-.95257 2.20131-1.14547-.54973a.43254.43254 0 0 0 -.56975.179.39552.39552 0 0 0 .18793.54263l1.14547.54974a.442.442 0 0 0 .19091.04356.42655.42655 0 0 0 .37884-.22255.39552.39552 0 0 0 -.18798-.54265zm-.5698 1.67246-1.25535.18324a.40645.40645 0 0 0 -.355.46025.41809.41809 0 0 0 .41861.34281.43583.43583 0 0 0 .06513-.00473l1.25584-.18325a.40714.40714 0 0 0 .355-.46024.42669.42669 0 0 0 -.48423-.33808z" fill="#ffb400" stroke="none" stroke-width="1px"></path></svg>