<svg xmlns="http://www.w3.org/2000/svg" viewBox="0 0 24 24" role="presentation" aria-hidden="true" focusable="false" style="height: 19px; width: 19px; fill: currentcolor;"><path d="m23.5 23h-1.5v-19a2 2 0 0 0 -.01-4h-19.98a2 2 0 0 0 -.01 4v19h-1.5a.5.5 0 1 0 0 1h23a .5.5 0 0 0 0-1zm-19.5 0h-1v-19h1zm15-19v14h-1.17c.33-1.58.04-3.44-.59-4.72-.24-.5-.49-.93-.92-1.58 0 0-.26-.39-.33-.5-.92-1.43-1.25-2.32-1.16-3.66a.5.5 0 0 0 -.86-.38c-.17.17-.92.88-1.03 1-.8.79-1.29 1.44-1.54 2.19a3.84 3.84 0 0 0 -.23 1.12c-.03.49.01.95.1 1.64l.02.14c-.61-.35-.95-.93-1.14-1.76-.08-.34-.1-.48-.19-1.25a14.33 14.33 0 0 0 -.04-.3.5.5 0 0 0 -.79-.33c-1.8 1.31-3.19 4.37-3.17 7.04 0 .49.07.94.16 1.37h-1.12v-14.02zm-6.72 8.96c-.09-.63-.12-1.03-.09-1.44a2.88 2.88 0 0 1 .17-.85c.2-.58.61-1.13 1.3-1.82l.22-.21c.13 1.02.54 1.91 1.29 3.08l.33.51c.41.62.64 1.02.86 1.47.58 1.18.84 3.01.44 4.4-.52 1.82-2.05 2.89-4.89 2.89-3.31 0-4.89-1.66-4.91-4.38-.02-2 .89-4.28 2.09-5.6.04.28.07.44.13.68.33 1.44 1.1 2.4 2.58 2.78a.5.5 0 0 0 .62-.49c0-.24 0-.26-.11-1.04zm6.72 10.04h-14v-4h1.45c.8 1.87 2.62 3 5.44 3 2.96 0 4.82-1.11 5.63-3h1.48zm2 0h-1v-19h1zm0-20h-18.99a1 1 0 1 1 0-2h19.98a1 1 0 1 1 0 2z" fill-rule="evenodd" stroke="none" fill="#484848" stroke-width="1px"></path></svg>