<svg viewBox="0 0 24 24" xmlns="http://www.w3.org/2000/svg" role="presentation" aria-hidden="true" focusable="false" style="height: 24px; width: 24px; display: block; fill: rgb(255, 180, 0);"><path d="m17.26945 11.89638c-.28595.86311-1.02649 3.32324-1.38349 3.99569-1.30926 2.46632-2.489 1.35048-4.03338 1.39556a2.78778 2.78778 0 0 1 -2.94983-1.6427c-1.1814-2.53068-1.77319-5.01265-.19452-5.01265s2.05212 1.469 3.31287 1.46059a1.65054 1.65054 0 0 0 1.61956-.766c1.67566-2.76666 2.45948-3.49984 2.96363-3.4547 1.87494.16768.95105 3.16098.66516 4.02421zm-8.986-8.41821a.44374.44374 0 0 1 -.229.40183.41254.41254 0 0 0 -.11914.57363.41892.41892 0 0 0 .57715.11842 1.26283 1.26283 0 0 0 .604-1.08854 2.33528 2.33528 0 0 0 -.24023-.91431 1.731 1.731 0 0 1 -.17623-.58188.42343.42343 0 0 1 .22461-.39407.41279.41279 0 0 0 .12646-.57217.4186.4186 0 0 0 -.57568-.1257 1.24066 1.24066 0 0 0 -.6084 1.0963 2.36413 2.36413 0 0 0 .24024.89685 1.71773 1.71773 0 0 1 .17626.58964zm4.99951 0a.44061.44061 0 0 1 -.22852.40135.41379.41379 0 0 0 .22856.76048.4178.4178 0 0 0 .22851-.06746 1.26453 1.26453 0 0 0 .60549-1.08954 2.3358 2.3358 0 0 0 -.24121-.91382 1.74216 1.74216 0 0 1 -.17579-.58089.42437.42437 0 0 1 .22461-.395.4131.4131 0 0 0 .126-.57217.4194.4194 0 0 0 -.5752-.1257 1.24522 1.24522 0 0 0 -.60889 1.09679 2.36445 2.36445 0 0 0 .24073.89636 1.71566 1.71566 0 0 1 .17575.5896zm-2.49951.166a.84657.84657 0 0 1 -.27442.68428.41519.41519 0 0 0 .54883.62313 1.65812 1.65812 0 0 0 .55863-1.30358 3.576 3.576 0 0 0 -.23242-1.12639 2.993 2.993 0 0 1 -.19238-.85657.83028.83028 0 0 1 .27931-.68619.412.412 0 0 0 .0454-.58385.41782.41782 0 0 0 -.5874-.0451 1.64026 1.64026 0 0 0 -.57032 1.3181 3.63537 3.63537 0 0 0 .23193 1.107 2.94365 2.94365 0 0 1 .19288.86914z" stroke="none" fill="#ffb400" stroke-width="1px"></path><path d="m18.75049 8.2174c-.00391 1.81041-2.1211 9.5326-4.57324 9.5326h-5.28174c-2.56836 0-4.479-7.79284-4.479-9.28386a4.63328 4.63328 0 0 1 .04377-.61653c-2.32484.22092-2.62728 1.25134-2.62728 2.0306 0 1.75766 1.02929 3.01687 3.0581 3.7418a.41165.41165 0 0 1 .251.52846.41664.41664 0 0 1 -.39209.27294.40046.40046 0 0 1 -.14111-.02516c-2.9829-1.06466-3.6089-3.04493-3.6089-4.51804 0-1.22.64508-2.71084 3.71228-2.88886a2.064 2.064 0 0 1 2.07092-.97006h7.39405a.41282.41282 0 1 1 0 .8256h-7.39405c-1.04248 0-1.53369.1597-1.53369 1.61925 0 1.90236 2.06983 8.45729 3.646 8.45729h5.28174c1.50586 0 3.73535-6.62461 3.73925-8.70748a1.809 1.809 0 0 0 -.28222-1.20452c-.17481-.17325-.4668-.18583-.92578-.18583a.41282.41282 0 1 1 0-.8256 1.99063 1.99063 0 0 1 1.51562.42828 2.4096 2.4096 0 0 1 .52637 1.78912z" fill="#484848" stroke="none" stroke-width="1px"></path></svg>