<svg xmlns="http://www.w3.org/2000/svg" viewBox="0 0 24 24" role="presentation" aria-hidden="true" focusable="false" style="height: 19px; width: 19px; fill: currentcolor;"><path d="m23.5 4h-1.5v-1.5c0-1.38-1.12-2.5-2.5-2.5h-15a2.5 2.5 0 0 0 -2.5 2.5v1.5h-1.5a.5.5 0 1 0 0 1h1.5v15.5c0 .83.67 1.5 1.5 1.5h1.5v.5c0 .83.67 1.5 1.5 1.5h14c .83 0 1.5-.67 1.5-1.5v-17.5h1.5a.5.5 0 0 0 0-1zm-20.5-1.5c0-.82.67-1.5 1.5-1.5h15.01c.82 0 1.49.67 1.49 1.5v1.5h-2v-.51a.5.5 0 0 1 .5-.49.5.5 0 0 0 0-1 1.5 1.5 0 0 0 -1.5 1.5v11.5h-15zm0 13.5h15v2h-15zm .5 5a .5.5 0 0 1 -.5-.5v-1.5h15v1.51c0 .27-.23.5-.5.5h-14zm17.5 1.5c0 .28-.22.5-.5.5h-14a .5.5 0 0 1 -.5-.5v-.5h11.5c.83 0 1.5-.67 1.5-1.5v-15.5h2z" fill-rule="evenodd" stroke="none" fill="#484848" stroke-width="1px"></path></svg>