<svg viewBox="0 0 24 24" xmlns="http://www.w3.org/2000/svg" role="presentation" aria-hidden="true" focusable="false" style="height: 24px; width: 24px; display: block; fill: rgb(255, 90, 95);"><path d="m11.18371 4.8515a.4151.4151 0 0 1 -.40364-.32008l-.41483-1.77356a.41494.41494 0 0 1 .80826-.18817l.41483 1.77356a.4138.4138 0 0 1 -.30978.4971.42558.42558 0 0 1 -.09484.01115zm-7.94695 1.2978a.41293.41293 0 0 0 .00048-.58536l-1.067-1.06453a.41449.41449 0 0 0 -.58748.58488l1.067 1.06453a.41645.41645 0 0 0 .587.00048zm3.20144 13.12445 1.067-1.064a.41449.41449 0 1 0 -.5865-.58585l-1.067 1.064a.41449.41449 0 0 0 .5865.58585zm-5.08739-4.53356 1.423-.71a.41405.41405 0 1 0 -.37155-.74007l-1.423.709a.41419.41419 0 0 0 .18626.78469.42351.42351 0 0 0 .18529-.04362zm15.04772 4.88857a.41487.41487 0 0 0 0-.58586l-1.067-1.064a.41484.41484 0 0 0 -.58748.58586l1.067 1.064a.41646.41646 0 0 0 .58748 0zm5.05773-4.71883a.41424.41424 0 0 0 -.18578-.55578l-1.423-.70953a.41427.41427 0 1 0 -.37155.74056l1.423.71a.424.424 0 0 0 .18578.04365.417.417 0 0 0 .37155-.2289zm-2.52984-9.86977 1.067-1.41856a.41432.41432 0 1 0 -.66335-.49661l-1.067 1.41855a.41432.41432 0 0 0 .66334.49662zm-5.69912 2.61084a3.52483 3.52483 0 0 0 -1.35163.47143 6.38741 6.38741 0 0 0 -1.46222 1.21816 6.40154 6.40154 0 0 0 -1.46222-1.21869 3.53161 3.53161 0 0 0 -1.35213-.4709 3.05 3.05 0 0 0 -.35529-.02122c-.74663 0-2.8774.63858-2.8774 3.47646 0 3.26272 4.85305 6.778 5.82636 7.44968a.38118.38118 0 0 0 .44137 0c.9733-.6717 5.82635-4.187 5.82635-7.44968 0-2.83788-2.13077-3.47646-2.87739-3.47646a3.06537 3.06537 0 0 0 -.3558.02122z" stroke="none" fill="#ff5a5f" stroke-width="1px"></path><path d="m11.5 19.91113a.89047.89047 0 0 1 -.50537-.1582c-1.23682-.84473-7.40527-5.27539-7.40527-9.48486 0-3.81934 2.94726-4.67871 3.97949-4.67871a4.21645 4.21645 0 0 1 .48779.0288 4.8121 4.8121 0 0 1 1.83447.62989 7.77094 7.77094 0 0 1 1.60889 1.26269 7.7136 7.7136 0 0 1 1.60938-1.26174 4.80041 4.80041 0 0 1 1.832-.63086 4.28409 4.28409 0 0 1 .49023-.0288.41064.41064 0 1 1 0 .82128 3.36717 3.36717 0 0 0 -.39453.02344 3.97979 3.97979 0 0 0 -1.51856.52686 7.4805 7.4805 0 0 0 -1.71923 1.42041.42379.42379 0 0 1 -.59864 0 7.52779 7.52779 0 0 0 -1.7192-1.42133 4.00954 4.00954 0 0 0 -1.52051-.52637 3.42012 3.42012 0 0 0 -.39209-.02295c-.81934 0-3.15821.7085-3.15821 3.85743 0 3.79638 5.87061 8.00244 7.04737 8.80713 1.26074-.80469 7.13086-5.01075 7.13086-8.80713a.41113.41113 0 0 1 .82226 0c0 4.20947-6.16894 8.64013-7.40527 9.48486a.89316.89316 0 0 1 -.50586.15816z" fill="#484848" stroke="none" stroke-width="1px"></path></svg>