<svg xmlns="http://www.w3.org/2000/svg" viewBox="0 0 24 24" role="presentation" aria-hidden="true" focusable="false" style="height: 19px; width: 19px; fill: currentcolor;"><path d="m16 13.54v-9.55a4 4 0 0 0 -4-3.99c-2.21 0-4 1.79-4 3.99v9.55a5.98 5.98 0 0 0 -2 4.46 6 6 0 1 0 12 0 5.98 5.98 0 0 0 -2-4.46zm-4 9.46a5 5 0 0 1 -3.18-8.86.5.5 0 0 0 .18-.39v-9.76a3 3 0 0 1 3-2.99c1.66 0 3 1.34 3 2.99v9.77a.5.5 0 0 0 .18.39 5 5 0 0 1 -3.18 8.85zm2-8.45v-10.54a2 2 0 1 0 -4 0v10.54a3.99 3.99 0 0 0 -2 3.45 4 4 0 0 0 8 0 3.99 3.99 0 0 0 -2-3.45zm-2 6.45a3 3 0 0 1 -1.29-5.71.5.5 0 0 0 .28-.45v-10.83a1 1 0 1 1 2 0v10.83a.5.5 0 0 0 .28.45 3 3 0 0 1 -1.27 5.71z" fill-rule="evenodd" stroke="none" fill="#484848" stroke-width="1px"></path></svg>