<svg xmlns="http://www.w3.org/2000/svg" viewBox="0 0 24 24" role="presentation" aria-hidden="true" focusable="false" style="height: 24px; width: 24px; display: block; fill: rgb(255, 180, 0);"><path d="M13.83138,3.77343,6.17885,3.75H6.17376A1.67865,1.67865,0,0,0,4.5,5.4335v2.133A1.67865,1.67865,0,0,0,6.17376,9.25h7.65248A1.67865,1.67865,0,0,0,15.5,7.5665V5.45692A1.67869,1.67869,0,0,0,13.83138,3.77343ZM8.0726,7.88975a.40364.40364,0,0,1-.10494.01381.41868.41868,0,0,1-.40454-.31616L7.14485,5.95434a.41844.41844,0,1,1,.81007-.21011l.41827,1.63306A.42078.42078,0,0,1,8.0726,7.88975ZM10.897,7.11194a.41828.41828,0,1,1-.83654,0V5.42856a.41828.41828,0,1,1,.83654,0Zm2.85926-.18743-.837,1.26265a.4169.4169,0,0,1-.58009.1169.422.422,0,0,1-.11621-.58349l.837-1.26265a.4174.4174,0,0,1,.58058-.11689A.42189.42189,0,0,1,13.7563,6.92451Z" style="fill-rule: evenodd;" stroke="none" fill="#60b6b5" stroke-width="1px"></path><path d="M19.58337,10.25H10.41669A1.66671,1.66671,0,0,0,8.75,11.91669v4.16662A1.66671,1.66671,0,0,0,10.41669,17.75h9.16668A1.66665,1.66665,0,0,0,21.25,16.08331V11.91669A1.66665,1.66665,0,0,0,19.58337,10.25ZM13.0202,15.18719a.41363.41363,0,0,1-.50683-.2998l-.41651-1.61719a.41639.41639,0,1,1,.80664-.207L13.32,14.68036A.4156.4156,0,0,1,13.0202,15.18719Zm2.81348-.7705a.417.417,0,0,1-.834,0V12.75018a.417.417,0,0,1,.834,0Zm2.84668-.18555-.834,1.25a.41683.41683,0,1,1-.69335-.46289l.834-1.25a.41684.41684,0,0,1,.69336.46289Z" stroke="none" fill="#ffb400" stroke-width="1px"></path><path d="M23,12v3.75a3.47984,3.47984,0,0,1-3.75,3.75H17.167v2.083A.41886.41886,0,0,1,16.75,22a.42444.42444,0,0,1-.21484-.05957L12.46826,19.5H9.875a3.71386,3.71386,0,0,1-3.75-3.75V12.4165a.41651.41651,0,0,1,.833,0V15.75a2.85614,2.85614,0,0,0,2.917,2.916h2.7085a.41477.41477,0,0,1,.21435.05957L16.333,20.84668V19.083a.41677.41677,0,0,1,.417-.417h2.5a2.6541,2.6541,0,0,0,2.916-2.916V12c0-1.729-.89942-2.5-2.916-2.5H16.4743a3.06551,3.06551,0,0,1-2.45672,1.41357H11.12939a.4165.4165,0,0,1,0-.833h2.88819a2.272,2.272,0,0,0,2.11035-2.08545L16.11816,4.877A2.35473,2.35473,0,0,0,14.00684,2.833H5.92432A2.24019,2.24019,0,0,0,3.833,4.877l.01074,3.11817a1.97533,1.97533,0,0,0,2.08154,2.08545H8.44287a.41657.41657,0,0,1,.41651.4165v1.667l1.18945-.91015a.41691.41691,0,1,1,.50683.66211L8.69629,13.33887a.41789.41789,0,0,1-.25342.08593.42417.42417,0,0,1-.18457-.043.41776.41776,0,0,1-.23193-.374V10.91357H5.92529A2.82416,2.82416,0,0,1,3.01074,7.99512L3,4.877A3.05549,3.05549,0,0,1,5.92432,2h8.08252a3.19921,3.19921,0,0,1,2.94531,2.877l.00976,3.11817a2.49278,2.49278,0,0,1-.10418.67187H19.25C22.34961,8.667,23,10.47949,23,12Z" style="" stroke="none" fill="#484848" stroke-width="1px"></path></svg>