<svg xmlns="http://www.w3.org/2000/svg" viewBox="0 0 152 10" preserveAspectRatio="none" focusable="false" class="_zdxht7" style="height: 15px;"><path fill="#ffc997" d="M150.033.736c.76.01 1.43.832 1.342 1.626-.1.89-.87 1.332-1.64 1.324-10.863-.103-21.725-.22-32.588-.341-19.165-.212-38.332-.382-57.5-.51-19.296-.13-38.594-.191-57.893-.203C.168 2.63.441.182 2.003.18 12.868.17 23.733.172 34.599.188c19.178.028 38.354.037 57.53.117 19.303.081 38.605.187 57.904.431zm-47.79 6.114c1.613.033 1.344 2.53-.252 2.493l-14.539-.336-50.884-1.174c-1.5-.035-1.246-2.353.235-2.323l14.542.298 50.898 1.042z" stroke="none" stroke-width="1px"></path></svg>